<svg width="88" height="101" viewBox="0 0 88 101" fill="none" xmlns="http://www.w3.org/2000/svg">
<g clip-path="url(#clip0_629_279)">
<path d="M44 39.9779C41.9279 39.9786 39.9026 40.5964 38.1801 41.7531C36.4576 42.9097 35.1153 44.5533 34.3229 46.4761C33.5304 48.3988 33.3235 50.5143 33.7282 52.5552C34.1329 54.596 35.1311 56.4705 36.5966 57.9417C38.0621 59.4128 39.929 60.4146 41.9613 60.8203C43.9936 61.2259 46.1001 61.0173 48.0144 60.2208C49.9287 59.4243 51.5648 58.0757 52.7159 56.3454C53.867 54.6151 54.4814 52.5809 54.4814 50.5C54.4793 47.7093 53.3743 45.0336 51.409 43.0606C49.4436 41.0877 46.7788 39.9789 44 39.9779ZM68.4966 31.89C67.9632 30.5325 67.1578 29.2995 66.1302 28.2676C65.1027 27.2357 63.875 26.4268 62.5232 25.8911C58.3982 24.2558 48.5768 24.6227 44 24.6227C39.4232 24.6227 29.6116 24.242 25.4748 25.8911C24.1231 26.4268 22.8954 27.2357 21.8678 28.2676C20.8403 29.2995 20.0348 30.5325 19.5014 31.89C17.875 36.0325 18.2384 45.9057 18.2384 50.498C18.2384 55.0904 17.875 64.9517 19.5093 69.1081C20.0427 70.4656 20.8481 71.6985 21.8757 72.7304C22.9032 73.7624 24.1309 74.5713 25.4827 75.1069C29.6077 76.7422 39.4291 76.3753 44.0079 76.3753C48.5866 76.3753 58.3943 76.7561 62.5311 75.1069C63.8828 74.5713 65.1105 73.7624 66.1381 72.7304C67.1656 71.6985 67.9711 70.4656 68.5045 69.1081C70.1446 64.9655 69.7675 55.0923 69.7675 50.5C69.7675 45.9077 70.1446 36.0483 68.5045 31.8919L68.4966 31.89ZM44 66.6758C40.8143 66.6758 37.7002 65.7271 35.0513 63.9497C32.4025 62.1723 30.3381 59.6459 29.1189 56.6902C27.8998 53.7345 27.5809 50.4821 28.2024 47.3443C28.8238 44.2065 30.3579 41.3242 32.6105 39.062C34.8632 36.7998 37.7332 35.2592 40.8577 34.635C43.9821 34.0109 47.2207 34.3312 50.1639 35.5555C53.1071 36.7798 55.6227 38.8531 57.3926 41.5132C59.1625 44.1733 60.1071 47.3007 60.1071 50.5C60.1097 52.625 59.6949 54.7296 58.8863 56.6933C58.0778 58.657 56.8914 60.4412 55.3952 61.9438C53.899 63.4464 52.1224 64.6378 50.167 65.4498C48.2116 66.2617 46.1159 66.6784 44 66.6758ZM60.7711 37.4213C60.0274 37.4217 59.3003 37.2006 58.6818 36.7859C58.0633 36.3713 57.5811 35.7818 57.2962 35.0919C57.0114 34.402 56.9366 33.6428 57.0815 32.9102C57.2263 32.1777 57.5842 31.5048 58.1099 30.9765C58.6357 30.4483 59.3056 30.0885 60.0349 29.9427C60.7643 29.7968 61.5203 29.8715 62.2074 30.1572C62.8945 30.4429 63.4818 30.9268 63.895 31.5478C64.3082 32.1687 64.5287 32.8988 64.5287 33.6456C64.5308 34.1416 64.4354 34.6331 64.2479 35.0919C64.0604 35.5507 63.7845 35.9678 63.4361 36.3194C63.0878 36.6709 62.6737 36.9499 62.2177 37.1403C61.7617 37.3308 61.2728 37.4289 60.7789 37.4292L60.7711 37.4213ZM78.5714 6.3125H9.42857C6.92796 6.3125 4.52976 7.3101 2.76156 9.08583C0.993364 10.8616 0 13.27 0 15.7812L0 85.2188C0 87.73 0.993364 90.1384 2.76156 91.9142C4.52976 93.6899 6.92796 94.6875 9.42857 94.6875H78.5714C81.072 94.6875 83.4702 93.6899 85.2384 91.9142C87.0066 90.1384 88 87.73 88 85.2188V15.7812C88 13.27 87.0066 10.8616 85.2384 9.08583C83.4702 7.3101 81.072 6.3125 78.5714 6.3125ZM75.2086 63.5195C74.9552 68.5755 73.8061 73.0554 70.1309 76.7363C66.4557 80.4173 61.9987 81.595 56.9702 81.8356C51.7825 82.1296 36.2293 82.1296 31.0416 81.8356C26.0071 81.5812 21.562 80.4252 17.8809 76.7363C14.1998 73.0475 13.0429 68.5656 12.8032 63.5195C12.5105 58.3078 12.5105 42.6863 12.8032 37.4805C13.0566 32.4246 14.192 27.9446 17.8809 24.2637C21.5698 20.5827 26.0268 19.4188 31.0416 19.1782C36.2293 18.8842 51.7825 18.8842 56.9702 19.1782C62.0046 19.4326 66.4636 20.5886 70.1309 24.2775C73.7982 27.9663 74.9689 32.4482 75.2086 37.5041C75.5013 42.6962 75.5013 58.3038 75.2086 63.5195Z" fill="black"/>
</g>
<defs>
<clipPath id="clip0_629_279">
<rect width="88" height="101" fill="white"/>
</clipPath>
</defs>
</svg>
