<svg width="421" height="511" viewBox="0 0 421 511" fill="none" xmlns="http://www.w3.org/2000/svg">
<path d="M202.121 316.33L10.0711 22.56C8.63232 20.36 7.81511 17.8119 7.70594 15.1855C7.59677 12.5591 8.1997 9.952 9.45091 7.64019C10.7021 5.32837 12.5551 3.39782 14.8136 2.05288C17.0722 0.707928 19.6524 -0.0013874 22.2811 2.03733e-06H406.371C408.999 0.000415634 411.578 0.711042 413.835 2.05672C416.092 3.40239 417.944 5.33309 419.194 7.64459C420.444 9.95609 421.046 12.5625 420.936 15.188C420.827 17.8136 420.009 20.3607 418.571 22.56L226.571 316.33C225.246 318.365 223.434 320.036 221.299 321.193C219.164 322.35 216.774 322.956 214.346 322.956C211.918 322.956 209.528 322.35 207.393 321.193C205.259 320.036 203.446 318.365 202.121 316.33Z" fill="black"/>
<path d="M4.32031 153L53.6403 504L326.32 287.55L4.32031 153Z" stroke="black" stroke-width="7" stroke-miterlimit="10"/>
<path d="M127.88 66.92L134.58 82.92L139.4 71.09L138 66.92H154.2L154 69.58L152.25 70.12C150.9 70.52 150.49 71.29 150.58 72.86L151.58 91.04C151.67 92.48 151.9 93.11 153.43 93.65L154.96 94.19L155.09 96.85H136.83L137.01 94.19L139.01 93.65C140.54 93.25 141.08 92.57 141.01 91L140.15 78L132.82 95.37H128L120.85 78.04L120 91C119.91 92.44 120.27 93.16 121.89 93.61L123.89 94.19L124.03 96.85H112.33L112.51 94.19L114.26 93.65C115.61 93.25 115.93 92.53 116.06 91L117.46 74.8C117.68 71.87 117.19 70.66 115.34 70.03L114.13 69.58L114 66.92H127.88Z" fill="white"/>
<path d="M178.371 66.92L186.371 91.81C186.499 92.2256 186.72 92.607 187.016 92.9255C187.312 93.2441 187.676 93.4918 188.081 93.65L189.391 94.19L189.521 96.85H171.521L171.701 94.19L175.081 93.07C175.391 92.84 175.301 91.72 174.901 90.5L173.901 87.17H164.811L163.551 91.09C163.401 91.5241 163.327 91.9808 163.331 92.44C163.312 92.7041 163.386 92.9664 163.542 93.1806C163.698 93.3948 163.924 93.5469 164.181 93.61L166.931 94.19L167.111 96.85H155.281L155.421 94.19L157.131 93.61C157.565 93.4786 157.962 93.2473 158.29 92.9347C158.618 92.6221 158.869 92.2369 159.021 91.81L167.161 69.31L166.001 66.92H178.371ZM169.461 72.59L165.771 84.2H173.001L169.461 72.59Z" fill="white"/>
<path d="M209.87 66.92L209.69 69.58L207.93 70.12C206.58 70.52 206.31 71.38 206.27 72.82L206 86.41C205.87 94.41 201 98.11 191.87 100.67L190 97.39C193.92 94.73 195 92.57 195 87.76L195.14 72.82C195.14 71.33 194.73 70.57 193.34 70.12L191.63 69.58L191.49 66.92H209.87Z" fill="white"/>
<path d="M230.25 66.92L230.07 69.58L228.32 70.12C226.97 70.52 226.7 71.29 226.65 72.73L226 91C226 92.44 226.32 93.11 227.89 93.65L229.51 94.19L229.65 96.85H211.65L211.83 94.19L213.63 93.65C214.98 93.25 215.34 92.44 215.34 91L215.61 72.82C215.61 71.33 215.21 70.57 213.81 70.12L212.1 69.58L211.97 66.92H230.25Z" fill="white"/>
<path d="M247.89 66.92L254.6 82.92L259.41 71.09L258 66.92H274.25L274 69.58L272.24 70.12C270.89 70.52 270.49 71.29 270.58 72.86L271.58 91.04C271.67 92.48 271.89 93.11 273.42 93.65L274.95 94.19L275.09 96.85H256.85L257.03 94.19L259.03 93.65C260.56 93.25 261.1 92.57 261.03 91L260.18 78L252.84 95.37H248L240.84 78.04L240 91C239.91 92.44 240.27 93.16 241.89 93.61L243.89 94.19L244.02 96.85H232.32L232.5 94.19L234.26 93.65C235.61 93.25 235.92 92.53 236.06 91L237.45 74.8C237.68 71.87 237.18 70.66 235.34 70.03L234.12 69.58L234 66.92H247.89Z" fill="white"/>
<path d="M299.781 66.92L302.881 66.11L303.511 75.2L300.771 75.52L299.241 72.52C298.521 71.13 297.981 70.36 296.241 70.27L293.721 70.14C293.001 70.14 292.721 70.45 292.641 71.04L292.461 74.1L292.321 80.58L295.831 80.44C296.511 80.44 297.051 80.35 297.181 80.13L298.581 77.7L301.051 77.65V86.88H298.441L297.261 84C297.171 83.78 296.401 83.73 295.731 83.73L292.261 83.64L292.001 93.74L297.351 93.47C297.897 93.5053 298.443 93.3953 298.933 93.1512C299.423 92.907 299.84 92.5374 300.141 92.08L303.141 88.16L305.611 89.16L303.051 97.26L294.001 96.81H277.641L277.821 94.15L279.621 93.61C280.971 93.21 281.331 92.4 281.331 90.96L281.601 72.78C281.601 71.29 281.241 70.48 279.931 70.08L278.221 69.54L278.091 66.88L299.781 66.92Z" fill="white"/>
<path d="M182.091 149.43L184.971 149.7C184.673 153.458 184.014 157.179 183.001 160.81H156.711L155.451 158.7L171.291 134.36L167.381 134.49C163.731 134.63 161.481 137.6 159.911 141.56L157.031 141.11C157.477 137.407 158.145 133.733 159.031 130.11L161.551 130.92H183.831L184.591 133.17L168.861 157.4L174.081 157.21C178.401 157 181.001 154.47 182.091 149.43Z" fill="white"/>
<path d="M206.3 130.89L206.12 133.55L204.37 134.09C203.02 134.49 202.75 135.26 202.7 136.7L202.07 155C202.07 156.44 202.39 157.11 203.96 157.65L205.58 158.19L205.72 160.84H187.67L187.85 158.19L189.65 157.65C191 157.24 191.36 156.44 191.36 155L191.63 136.82C191.63 135.33 191.23 134.57 189.83 134.12L188.12 133.58L187.99 130.92L206.3 130.89Z" fill="white"/>
<path d="M224.62 130.89L223.76 133.41L234.7 147.72L234.83 136.72C234.884 136.413 234.874 136.099 234.801 135.796C234.728 135.493 234.594 135.209 234.406 134.96C234.218 134.712 233.982 134.504 233.711 134.351C233.439 134.198 233.14 134.102 232.83 134.07L230.9 133.53L230.76 130.87H242.37L242.19 133.53L240.43 134.07C239.09 134.47 238.77 135.28 238.72 136.72L238.23 151.72L239.31 160.26L231.39 161.26L216.72 141.51L216.52 155C216.47 156.53 216.92 157.2 218.52 157.65L220.45 158.19L220.59 160.84H209L209.18 158.19L210.93 157.65C212.28 157.24 212.6 156.44 212.64 155L213.09 137.67C213.09 135.74 212.37 134.61 210.93 134.12L209.36 133.58L209.22 130.92L224.62 130.89Z" fill="white"/>
<path d="M266.781 130.89L269.881 130.08L270.511 139.17L267.771 139.49L266.241 136.49C265.521 135.1 264.981 134.33 263.241 134.24L260.721 134.11C260.001 134.11 259.721 134.42 259.641 135.01L259.461 138.07L259.331 144.55L262.831 144.41C263.511 144.41 264.051 144.32 264.181 144.1L265.581 141.67L268.051 141.62V150.85L265.451 150.8L264.261 148C264.171 147.78 263.401 147.73 262.731 147.73L259.271 147.64L259.001 157.71L264.361 157.44C264.907 157.475 265.452 157.363 265.94 157.117C266.429 156.871 266.843 156.499 267.141 156.04L270.141 152.13L272.611 153.13L270.051 161.23L261.051 160.77H244.641L244.821 158.12L246.621 157.58C247.971 157.17 248.331 156.37 248.331 154.93L248.601 136.75C248.601 135.26 248.241 134.45 246.941 134.05L245.231 133.51L245.091 130.85L266.781 130.89Z" fill="white"/>
</svg>
