<svg xmlns="http://www.w3.org/2000/svg" viewBox="0 0 498.23 94.67"><defs><style>.cls-1{isolation:isolate;font-size:72px;font-family:Zenon-Bold, Zenon;font-weight:700;}</style></defs><g id="レイヤー_2" data-name="レイヤー 2"><g id="レイヤー_1-2" data-name="レイヤー 1"><g id="レイヤー_2-2" data-name="レイヤー 2"><g id="レイヤー_1-2-2" data-name="レイヤー 1-2"><text class="cls-1" transform="translate(0 59.94)">MAJIME ZINE</text></g></g><path d="M154.75,83.93c0,.6-1,.76-1.62,1.36a34.69,34.69,0,0,1-3.56,2.78,2.91,2.91,0,0,1,1.06,2.16.75.75,0,0,1-.8.86c-.66,0-.8-.88-1.9-2.18a23.47,23.47,0,0,0-2.1-2.12c-.38-.36-.12-.8.46-.58a11.27,11.27,0,0,1,2.36,1.18A15,15,0,0,0,152,84c.28-.42.18-.54-.3-.52a53.63,53.63,0,0,0-7.29,1.34,13.94,13.94,0,0,1-2.18.58,2.81,2.81,0,0,1-2.22-2c-.08-.38.26-.5.58-.32a4.06,4.06,0,0,0,1.88.64c1.12,0,6-.76,8.43-1.16.62-.1,1.08-.34,1.42-.34C153.37,82.13,154.75,83.37,154.75,83.93Z"/><path d="M162.08,83.51A5.54,5.54,0,0,1,165.36,85c.6.6.62,1.38.2,1.7s-.88.14-1.46-.48-1.4-1.3-2.34-2.12C161.48,83.85,161.66,83.45,162.08,83.51Zm1.56,7.22a1.61,1.61,0,0,0,1.48,0,27.11,27.11,0,0,0,9.29-7.54.43.43,0,0,1,.72.48A26.27,26.27,0,0,1,166.25,92a4.6,4.6,0,0,1-1.75.72,2.8,2.8,0,0,1-2.42-2.2c0-.36.2-.52.48-.36S163.36,90.59,163.64,90.73Zm1.28-10.52a5.71,5.71,0,0,1,3.27,1.48c.6.66.52,1.44,0,1.76s-.82.12-1.46-.62a16.78,16.78,0,0,0-2.15-2C164.26,80.55,164.48,80.15,164.92,80.21Zm9.59,1.14a.67.67,0,0,1-.68.7c-.46,0-.6-.34-1.06-.88s-.8-.82-1.2-1.2a.3.3,0,0,1,.24-.54C173.11,79.53,174.51,80.41,174.51,81.35Zm1.7-1.88a.64.64,0,0,1-.66.7c-.3,0-.5-.16-.88-.58a10.14,10.14,0,0,0-1.48-1.24c-.32-.24-.18-.58.2-.58C174.67,77.79,176.21,78.45,176.21,79.47Z"/><path d="M193.19,89.19a.76.76,0,0,1-.72.78c-.48,0-.66-.22-1.22-1a17.68,17.68,0,0,0-1.42-1.56,18.35,18.35,0,0,1-7.77,5.14c-.74.2-1-.48-.32-.78a22,22,0,0,0,7-5.3,22.52,22.52,0,0,0-3.08-2.08c-.57-.32-.29-.94.31-.76a15.46,15.46,0,0,1,3.71,1.66,13.3,13.3,0,0,0,1.74-3.3c.2-.62.24-.82-.36-1.34-.32-.28-.64-.5-.5-.78s.78-.24,1.18-.14c1,.26,1.76.94,1.76,1.34a5,5,0,0,1-.62,1.56,22.84,22.84,0,0,1-2,3.48C192,87,193.23,88.25,193.19,89.19Z"/><path d="M209.57,79.61c.18,7.1,3.68,11.36,8.28,12.88.6.2.54.54,0,.7a1.39,1.39,0,0,0-.88.56.62.62,0,0,1-.94.22c-3.44-1.86-5.94-5.14-6.8-10.14a12.59,12.59,0,0,1-1.6,4.72,14.05,14.05,0,0,1-7.37,5.88c-.56.2-.78-.4-.3-.66a15.68,15.68,0,0,0,6.34-5.64,13.89,13.89,0,0,0,1.75-7.7c0-1-.08-1.84-.16-2.72,0-.2,0-.3.3-.3.66,0,2.6.32,2.6.82,0,.28-.34.62-1.22.76Z"/><path d="M237.73,86.67c0,3.84-3.08,5.82-7.2,5.82-.7,0-.74-.62-.12-.74,3.46-.68,5.7-2.14,5.7-5.42a4.93,4.93,0,0,0-3.1-4.76,9.64,9.64,0,0,1-.56,2.46c-1.16,3.2-4.51,7.18-6.91,7.18-1.06,0-2.1-1.46-2.28-3.82a6.52,6.52,0,0,1,2.1-5.56,7.65,7.65,0,0,1,4.91-1.78C235.05,80.05,237.73,83.07,237.73,86.67Zm-5.84-5.46a8.87,8.87,0,0,0-1.68-.16,5.76,5.76,0,0,0-4.07,1.48,5.29,5.29,0,0,0-1.58,4.4c.1,1.54.64,2.48,1.22,2.48,1.93,0,4.81-3.9,5.75-6.58A6.24,6.24,0,0,0,231.89,81.21Z"/><path d="M255.15,80.05c.32-.44.78-1,1-1,.46,0,1.76,1,1.76,1.42s-.42.54-.86.7c-.14,2.84.06,11.16.06,12.58,0,.62-.38.78-1,.78a.62.62,0,0,1-.64-.68V93h-9.17v1c0,.44-.32.68-1,.68a.51.51,0,0,1-.58-.58c0-2.24.22-11.78-.08-14.54a.27.27,0,0,1,.28-.28,5.42,5.42,0,0,1,1.92.78h2.35a15.65,15.65,0,0,0,.86-3.2c0-.14.14-.28.38-.26,1,.14,2.1.46,2.06,1,0,.26-.46.42-.86.46a17.24,17.24,0,0,1-1.28,2ZM246.34,88h9.25l0-3.24h-9.27V88Zm9.27-4v-3.1h-8.83a1.6,1.6,0,0,1-.36.08c0,.58-.06,1.82-.06,3Zm0,8.22,0-3.38h-9.23l0,3.38Z"/><path d="M280.77,80.87c.3-.4.66-.8.88-.8.44,0,1.72,1,1.72,1.42s-.42.52-.84.68c-.12,2.62.06,10.3.06,11.62,0,.62-.36.76-.94.76a.61.61,0,0,1-.62-.68v-.78h-12V94c0,.44-.3.68-1,.68a.51.51,0,0,1-.56-.58c0-2.16.22-11-.08-13.7a.27.27,0,0,1,.28-.28,5.57,5.57,0,0,1,1.88.76h4.65c0-1.82-.08-3.3-.16-3.92,0-.18.1-.28.28-.28.34,0,2.38.06,2.38.58s-.44.6-1.06.74v2.88Zm-6.48,5.54c0-1.58,0-3.24,0-4.74h-4.79a1.8,1.8,0,0,1-.38.08c-.06.88-.08,3.3-.08,4.66Zm-5.23,5.88h5.17c0-1.1,0-3,.06-5.08H269v0Zm6.65-10.62v4.74h5.36c0-2.08,0-4,0-4.74Zm5.34,10.62,0-5.08h-5.36v5.08Z"/><path d="M295.4,83.73c.27-.36.56-.7.77-.7.37,0,1.48.84,1.48,1.28,0,.26-.32.44-.65.56,0,1.54,0,5.72,0,6.52,0,.62-.31.76-.82.76s-.59-.36-.59-.68v-.38h-2.5v2.1c0,.44-.28.64-.84.64-.34,0-.52-.2-.52-.56,0-.52.06-3.9.06-6.24a17,17,0,0,1-1.9,2.7c-.38.44-.88.12-.58-.4a23,23,0,0,0,3.5-10.1h-2.72c-.26,0-.44-.08-.44-.4s.18-.4.44-.4h5.4c.4-.58.86-1.22,1.15-1.22s1.6,1.16,1.6,1.6c0,.28-.38.42-.93.42h-2.17c0,.26-.25.44-.81.56a35.8,35.8,0,0,1-1.08,3.92l0,0Zm.24,6.56c0-1.7,0-4.66,0-5.76h-2.51c-.06.82-.06,3.46-.06,4.06v1.7Zm10.09-5.14c.4-.64.9-1.32,1.18-1.32a3.1,3.1,0,0,1,1.58,1.68c0,.3-.42.44-.88.44h-2.4v.26c0,4.4.1,6.86.1,7.64,0,.42-.34.72-1,.72-.4,0-.56-.22-.56-.6,0-.86.08-3.28.08-7.76V86h-2.38c-.1,3.6-1,6.76-5,8.64-.54.22-.87-.22-.35-.6,2.89-2,3.91-3.66,4.05-8h-2.26c-.27,0-.44-.08-.44-.4s.17-.4.44-.4h2.28c0-1.82,0-4.28-.22-6.1h-1.14c-.26,0-.44-.08-.44-.4s.18-.4.44-.4h6.36c.42-.6.92-1.3,1.22-1.3s1.74,1.18,1.74,1.66c0,.28-.38.44-1,.44h-1.3a.18.18,0,0,1,0,.1c0,.2-.18.36-.58.42v5.58Zm-1.9,0v-6.1h-1.7c0,.24-.28.36-.64.42,0,1.66,0,3.74,0,5.68Z"/><path d="M325.51,87.49c.3-.38.64-.76.86-.76.44,0,1.66,1.06,1.66,1.5,0,.28-.38.44-.8.56-.06,1.08-.12,2.74-.1,3.5,0,.56.1.74,1.5.74s1.94-.2,2.16-.64a7.65,7.65,0,0,0,.44-1.3c.12-.48.64-.44.64.06,0,1.82.38,1.58.38,2.14s-.94,1.06-3.52,1.06-3-.34-3-1.82c0-.82.06-2.8.1-4.24l-3.1.06c-.64,3.56-3.15,5.6-8.27,6.26-.58.08-.66-.58-.12-.7,4.08-1,6.22-2.44,6.79-5.54l-4.51.08c-.26,0-.44-.06-.44-.38a.39.39,0,0,1,.44-.42l4.61-.08a12.48,12.48,0,0,0,0-2.12c0-.24,0-.34.32-.34.66,0,2.18.22,2.18.64,0,.26-.14.46-.84.66a10.6,10.6,0,0,1-.06,1.14ZM317.12,80v.4c-.06,1.46-.84,2.66-1.94,2.66a.79.79,0,0,1-.82-.82c0-.92,1-1,1.5-2.14a4.66,4.66,0,0,0,.18-1.74c0-.46.52-.54.72-.1a5.82,5.82,0,0,1,.26.94h5.05A20.08,20.08,0,0,0,322,77a.26.26,0,0,1,.29-.3c.33,0,2.28.06,2.28.6s-.44.58-1.06.72v1.26h5.1c.34-.4.78-.82,1-.82s1.68,1.1,1.66,1.7c0,.4-.52.46-1.08.62a19.76,19.76,0,0,1-1.8,1.34c-.44.26-.84-.08-.56-.5a11.9,11.9,0,0,0,.84-1.54Zm3.29.34c.86,0,2,.34,2,.76s-.28.48-.92.52a5.19,5.19,0,0,1-1.28,2.8,7.72,7.72,0,0,1-4.77,2.14c-.54.1-.72-.5-.18-.7a7.18,7.18,0,0,0,3.72-2,4.87,4.87,0,0,0,1-3.06C320.06,80.51,320.1,80.37,320.41,80.37Zm3.8,3.2c0-.62.06-1.92,0-2.82,0-.28.06-.36.34-.36s1.86.16,1.86.6c0,.24-.28.36-.74.44,0,.6-.06,1.32,0,1.88s0,.7,1.9.72c1.58,0,2.22-.16,2.5-.46a2.72,2.72,0,0,0,.52-1c.14-.4.64-.34.62.14-.06,1.28.3,1.1.28,1.6s-1,1.06-3.9,1S324.19,85.07,324.21,83.57Z"/><path d="M340.86,87.59a10.92,10.92,0,0,1-2.6,6.88c-.48.44-1,.06-.6-.48,1.2-1.94,1.76-4.26,1.8-7.6,0-1.58,0-3.4-.12-5,0-.3.12-.42.38-.38a4.74,4.74,0,0,1,1.76.94H344c.29-.38.63-.76.84-.76.42,0,1.59.86,1.59,1.3,0,.26-.32.44-.68.58,0,1.36,0,4.3,0,5s-.32.76-.86.76a.6.6,0,0,1-.62-.68v-.6Zm-2.56-8.28c-.26,0-.44-.08-.44-.4s.18-.4.44-.4h5.76c.43-.64,1-1.38,1.27-1.4s1.76,1.26,1.76,1.74c0,.3-.42.46-1,.46Zm6,7.48c0-1.3,0-3.14,0-4H341c0,1.26,0,2.34,0,3.88v.12Zm9.05-3.4c.42-.64.94-1.36,1.24-1.36s1.72,1.24,1.72,1.7c0,.3-.42.46-1,.46h-1.66a.34.34,0,0,1,.16.26c0,.22-.22.38-.66.46v3.9c0,2.74.06,4.48.06,5.12,0,.42-.32.72-1,.72-.4,0-.56-.22-.56-.6,0-.72.06-2.42.06-5.24V84.19h-2.68L349,85.25c-.18,3.26-1,6.92-5.55,9.2-.52.26-.9-.22-.38-.62,3-2.18,4.43-4.38,4.53-9.28a61.9,61.9,0,0,0-.16-6.3c0-.3.08-.4.34-.36a5.83,5.83,0,0,1,1.58.76,17.11,17.11,0,0,0,4.2-1.6c.46-.26.56-.26,1,.08a4,4,0,0,1,.92,1.06c.24.44-.16.68-.9.3a28.23,28.23,0,0,1-5.42,1c0,1.22,0,2.54,0,3.88Z"/></g></g></svg>