<svg width="101" height="101" viewBox="0 0 101 101" fill="none" xmlns="http://www.w3.org/2000/svg">
<path d="M90.6179 29.9283C90.682 30.8255 90.682 31.7228 90.682 32.62C90.682 59.9847 69.8541 91.5152 31.7868 91.5152C20.059 91.5152 9.16437 88.1185 0 82.2228C1.6663 82.4149 3.2683 82.4791 4.99871 82.4791C14.6756 82.4791 23.5837 79.2108 30.6973 73.6352C21.597 73.4429 13.9707 67.4829 11.3432 59.2798C12.625 59.472 13.9066 59.6002 15.2526 59.6002C17.111 59.6002 18.9697 59.3437 20.6999 58.8954C11.2151 56.9726 4.10135 48.6415 4.10135 38.58V38.3237C6.85695 39.8618 10.0615 40.8231 13.4579 40.9511C7.88234 37.234 4.22957 30.8896 4.22957 23.7119C4.22957 19.8668 5.25476 16.342 7.04929 13.2659C17.239 25.8267 32.5557 34.0296 49.7307 34.927C49.4103 33.3889 49.218 31.7869 49.218 30.1847C49.218 18.7773 58.4464 9.48486 69.9178 9.48486C75.8778 9.48486 81.261 11.9842 85.0422 16.0217C89.7204 15.1245 94.2064 13.3941 98.1799 11.0229C96.6416 15.8295 93.3733 19.867 89.0796 22.4302C93.2453 21.9818 97.2827 20.828 101 19.226C98.1803 23.3274 94.6553 26.9802 90.6179 29.9283Z" fill="black"/>
</svg>
